<svg width="18" height="28" viewBox="0 0 18 28" fill="none" xmlns="http://www.w3.org/2000/svg">
<path fill-rule="evenodd" clip-rule="evenodd" d="M8.99931 0C9.26453 0 9.51888 0.105357 9.70642 0.292893C9.89395 0.48043 9.99931 0.734784 9.99931 1V24.586L16.2913 18.292C16.4791 18.1042 16.7338 17.9987 16.9993 17.9987C17.2649 17.9987 17.5195 18.1042 17.7073 18.292C17.8951 18.4798 18.0006 18.7344 18.0006 19C18.0006 19.2656 17.8951 19.5202 17.7073 19.708L9.70731 27.708C9.61442 27.8011 9.50407 27.875 9.38258 27.9254C9.26109 27.9758 9.13084 28.0018 8.99931 28.0018C8.86777 28.0018 8.73753 27.9758 8.61604 27.9254C8.49455 27.875 8.3842 27.8011 8.29131 27.708L0.29131 19.708C0.103537 19.5202 -0.00195313 19.2656 -0.00195312 19C-0.00195312 18.7344 0.103537 18.4798 0.29131 18.292C0.479083 18.1042 0.733759 17.9987 0.99931 17.9987C1.26486 17.9987 1.51954 18.1042 1.70731 18.292L7.99931 24.586V1C7.99931 0.734784 8.10467 0.48043 8.2922 0.292893C8.47974 0.105357 8.73409 0 8.99931 0Z" fill="#5222D0"/>
</svg>
