<svg width="120" height="164" viewBox="0 0 120 164" fill="none" xmlns="http://www.w3.org/2000/svg">
<path d="M11.9967 156.976V158H4.07666V146.8H11.7567V147.824H5.26066V151.808H11.0527V152.816H5.26066V156.976H11.9967ZM23.8292 158L20.2132 153.072L16.6132 158H15.2532L19.5092 152.24L15.5252 146.8H16.8852L20.2612 151.376L23.6212 146.8H24.9012L20.9332 152.208L25.2052 158H23.8292ZM33.2727 146.8C34.702 146.8 35.822 147.141 36.6327 147.824C37.4434 148.507 37.8487 149.445 37.8487 150.64C37.8487 151.835 37.4434 152.773 36.6327 153.456C35.822 154.128 34.702 154.464 33.2727 154.464H30.2647V158H29.0807V146.8H33.2727ZM33.2407 153.424C34.35 153.424 35.198 153.184 35.7847 152.704C36.3714 152.213 36.6647 151.525 36.6647 150.64C36.6647 149.733 36.3714 149.04 35.7847 148.56C35.198 148.069 34.35 147.824 33.2407 147.824H30.2647V153.424H33.2407ZM50.2229 158L47.6629 154.4C47.3749 154.432 47.0762 154.448 46.7669 154.448H43.7589V158H42.5749V146.8H46.7669C48.1962 146.8 49.3162 147.141 50.1269 147.824C50.9376 148.507 51.3429 149.445 51.3429 150.64C51.3429 151.515 51.1189 152.256 50.6709 152.864C50.2336 153.461 49.6042 153.893 48.7829 154.16L51.5189 158H50.2229ZM46.7349 153.44C47.8442 153.44 48.6922 153.195 49.2789 152.704C49.8656 152.213 50.1589 151.525 50.1589 150.64C50.1589 149.733 49.8656 149.04 49.2789 148.56C48.6922 148.069 47.8442 147.824 46.7349 147.824H43.7589V153.44H46.7349ZM64.2235 156.976V158H56.3035V146.8H63.9835V147.824H57.4875V151.808H63.2795V152.816H57.4875V156.976H64.2235ZM72.2607 158.096C71.4287 158.096 70.6287 157.963 69.8607 157.696C69.1033 157.429 68.5167 157.077 68.1007 156.64L68.5647 155.728C68.97 156.133 69.5087 156.464 70.1807 156.72C70.8527 156.965 71.546 157.088 72.2607 157.088C73.2633 157.088 74.0153 156.907 74.5167 156.544C75.018 156.171 75.2687 155.691 75.2687 155.104C75.2687 154.656 75.13 154.299 74.8527 154.032C74.586 153.765 74.2553 153.563 73.8607 153.424C73.466 153.275 72.9167 153.115 72.2127 152.944C71.37 152.731 70.698 152.528 70.1967 152.336C69.6953 152.133 69.2633 151.829 68.9007 151.424C68.5487 151.019 68.3727 150.469 68.3727 149.776C68.3727 149.211 68.522 148.699 68.8207 148.24C69.1193 147.771 69.578 147.397 70.1967 147.12C70.8153 146.843 71.5833 146.704 72.5007 146.704C73.1407 146.704 73.7647 146.795 74.3727 146.976C74.9913 147.147 75.5247 147.387 75.9727 147.696L75.5727 148.64C75.1033 148.331 74.602 148.101 74.0687 147.952C73.5353 147.792 73.0127 147.712 72.5007 147.712C71.5193 147.712 70.778 147.904 70.2767 148.288C69.786 148.661 69.5407 149.147 69.5407 149.744C69.5407 150.192 69.674 150.555 69.9407 150.832C70.218 151.099 70.5593 151.307 70.9647 151.456C71.3807 151.595 71.9353 151.749 72.6287 151.92C73.45 152.123 74.1113 152.325 74.6127 152.528C75.1247 152.72 75.5567 153.019 75.9087 153.424C76.2607 153.819 76.4367 154.357 76.4367 155.04C76.4367 155.605 76.282 156.123 75.9727 156.592C75.674 157.051 75.21 157.419 74.5807 157.696C73.9513 157.963 73.178 158.096 72.2607 158.096ZM84.2705 158.096C83.4385 158.096 82.6385 157.963 81.8705 157.696C81.1132 157.429 80.5265 157.077 80.1105 156.64L80.5745 155.728C80.9798 156.133 81.5185 156.464 82.1905 156.72C82.8625 156.965 83.5558 157.088 84.2705 157.088C85.2732 157.088 86.0252 156.907 86.5265 156.544C87.0278 156.171 87.2785 155.691 87.2785 155.104C87.2785 154.656 87.1398 154.299 86.8625 154.032C86.5958 153.765 86.2652 153.563 85.8705 153.424C85.4758 153.275 84.9265 153.115 84.2225 152.944C83.3798 152.731 82.7078 152.528 82.2065 152.336C81.7052 152.133 81.2732 151.829 80.9105 151.424C80.5585 151.019 80.3825 150.469 80.3825 149.776C80.3825 149.211 80.5318 148.699 80.8305 148.24C81.1292 147.771 81.5878 147.397 82.2065 147.12C82.8252 146.843 83.5932 146.704 84.5105 146.704C85.1505 146.704 85.7745 146.795 86.3825 146.976C87.0012 147.147 87.5345 147.387 87.9825 147.696L87.5825 148.64C87.1132 148.331 86.6118 148.101 86.0785 147.952C85.5452 147.792 85.0225 147.712 84.5105 147.712C83.5292 147.712 82.7878 147.904 82.2865 148.288C81.7958 148.661 81.5505 149.147 81.5505 149.744C81.5505 150.192 81.6838 150.555 81.9505 150.832C82.2278 151.099 82.5692 151.307 82.9745 151.456C83.3905 151.595 83.9452 151.749 84.6385 151.92C85.4598 152.123 86.1212 152.325 86.6225 152.528C87.1345 152.72 87.5665 153.019 87.9185 153.424C88.2705 153.819 88.4465 154.357 88.4465 155.04C88.4465 155.605 88.2918 156.123 87.9825 156.592C87.6838 157.051 87.2198 157.419 86.5905 157.696C85.9612 157.963 85.1878 158.096 84.2705 158.096ZM100.746 158.096C100.106 158.096 99.5139 157.957 98.9699 157.68C98.4259 157.403 97.9832 157.008 97.6419 156.496L98.3459 155.696C98.9646 156.613 99.7699 157.072 100.762 157.072C102.149 157.072 102.842 156.251 102.842 154.608V147.824H98.7459V146.8H104.01V154.56C104.01 155.733 103.733 156.619 103.178 157.216C102.634 157.803 101.823 158.096 100.746 158.096ZM112.816 158.096C111.984 158.096 111.184 157.963 110.416 157.696C109.658 157.429 109.072 157.077 108.656 156.64L109.12 155.728C109.525 156.133 110.064 156.464 110.736 156.72C111.408 156.965 112.101 157.088 112.816 157.088C113.818 157.088 114.57 156.907 115.072 156.544C115.573 156.171 115.824 155.691 115.824 155.104C115.824 154.656 115.685 154.299 115.408 154.032C115.141 153.765 114.81 153.563 114.416 153.424C114.021 153.275 113.472 153.115 112.768 152.944C111.925 152.731 111.253 152.528 110.752 152.336C110.25 152.133 109.818 151.829 109.456 151.424C109.104 151.019 108.928 150.469 108.928 149.776C108.928 149.211 109.077 148.699 109.376 148.24C109.674 147.771 110.133 147.397 110.752 147.12C111.37 146.843 112.138 146.704 113.056 146.704C113.696 146.704 114.32 146.795 114.928 146.976C115.546 147.147 116.08 147.387 116.528 147.696L116.128 148.64C115.658 148.331 115.157 148.101 114.624 147.952C114.09 147.792 113.568 147.712 113.056 147.712C112.074 147.712 111.333 147.904 110.832 148.288C110.341 148.661 110.096 149.147 110.096 149.744C110.096 150.192 110.229 150.555 110.496 150.832C110.773 151.099 111.114 151.307 111.52 151.456C111.936 151.595 112.49 151.749 113.184 151.92C114.005 152.123 114.666 152.325 115.168 152.528C115.68 152.72 116.112 153.019 116.464 153.424C116.816 153.819 116.992 154.357 116.992 155.04C116.992 155.605 116.837 156.123 116.528 156.592C116.229 157.051 115.765 157.419 115.136 157.696C114.506 157.963 113.733 158.096 112.816 158.096Z" fill="#1F2626"/>
<path d="M37.2184 73.389V47.1348H38.6425V51.2646C38.8106 51.0815 38.9659 50.887 39.1073 50.6824C40.2967 48.2148 42.8053 46.6574 45.5441 46.6882C48.791 46.5914 51.4295 47.7933 52.98 50.6824C53.9667 52.4773 54.5097 54.4822 54.5636 56.5297C54.6175 58.5771 54.1808 60.6078 53.2899 62.4521C51.8453 65.6899 48.2772 67.2996 44.4572 66.7084C43.2684 66.6073 42.1239 66.2101 41.1281 65.553C40.1322 64.8959 39.3169 63.9998 38.7564 62.9465V73.3878L37.2184 73.389ZM38.6425 56.422L38.9615 59.5048C39.5243 63.0138 41.5988 65.0872 44.856 65.4768C46.3856 65.7283 47.955 65.4416 49.2968 64.6654C50.6386 63.8893 51.6698 62.6718 52.2144 61.2206C53.4813 58.2015 53.3879 54.7838 51.9638 51.8354C51.3825 50.5344 50.3935 49.4581 49.1464 48.7689C47.8992 48.0797 46.4616 47.8153 45.0508 48.0154C43.7266 48.1118 42.4652 48.6181 41.4419 49.4642C40.4187 50.3102 39.6843 51.454 39.3408 52.7365C39.0376 53.9502 38.8044 55.1804 38.6425 56.4209V56.422ZM83.6409 59.9902C83.4249 61.8387 82.5449 63.5459 81.1646 64.7942C79.7842 66.0425 77.9974 66.7471 76.1366 66.7767C70.1646 67.0775 67.362 63.1117 66.9166 58.5353C66.6068 56.0501 67.0102 53.5281 68.0797 51.2635C68.8241 49.71 70.0438 48.4338 71.5619 47.6198C73.0801 46.8058 74.8181 46.4963 76.5239 46.736C78.1456 46.8739 79.6829 47.5183 80.9182 48.5779C82.1535 49.6376 83.0243 51.059 83.4073 52.6408C83.7107 54.0818 83.934 55.5385 84.0761 57.0042H68.3919C68.1014 61.1534 70.3309 64.4891 73.4912 65.2934C77.4273 66.2618 80.7916 64.5563 82.0129 60.8139C82.284 59.8535 82.7785 59.7179 83.6511 59.9902H83.6409ZM68.3805 55.6758H82.4093C82.3216 51.2555 79.5692 48.0428 75.8358 48.0063C71.6206 47.938 68.5639 51.0219 68.3805 55.6758ZM86.5403 60.087H87.9154C87.9659 61.1001 88.2949 62.0796 88.8661 62.9177C89.4373 63.7559 90.2287 64.4203 91.1531 64.8377C92.3139 65.3601 93.5775 65.614 94.8499 65.5804C96.1224 65.5469 97.3708 65.2268 98.5025 64.644C99.1193 64.3663 99.6361 63.9059 99.9828 63.325C100.33 62.7441 100.49 62.0708 100.441 61.396C100.477 60.7452 100.299 60.1006 99.9354 59.5599C99.5715 59.0192 99.0413 58.6119 98.425 58.3998C96.9121 57.837 95.3034 57.5271 93.762 57.0327C92.1581 56.576 90.5897 56.0026 89.0694 55.3169C86.5858 54.1048 86.432 49.3837 89.2437 47.889C90.6834 47.0766 92.3036 46.6376 93.9565 46.6122C95.6094 46.5867 97.2424 46.9755 98.7064 47.7432C100.522 48.7457 101.526 50.7702 101.228 52.8242H100.048C100.048 52.7673 99.9414 52.7171 99.9414 52.659C99.7955 48.8995 96.6352 47.7238 93.2425 48.0542C92.2172 48.1681 91.2454 48.478 90.334 48.936C89.7861 49.1862 89.3296 49.6005 89.0275 50.1215C88.7254 50.6426 88.5928 51.2447 88.6479 51.8445C88.649 52.4447 88.8361 53.0298 89.1833 53.5194C89.5305 54.0091 90.0209 54.3791 90.5869 54.5787C92.0679 55.1221 93.6401 55.4707 95.1724 55.8968L98.875 56.8652C99.7166 57.1414 100.454 57.6666 100.991 58.3712C101.528 59.0759 101.838 59.9269 101.88 60.8116C102.177 62.7996 101.163 64.7534 99.3695 65.6591C96.1317 67.491 90.7988 67.0069 88.4235 64.6907C87.2079 63.4683 86.53 61.8084 86.5437 60.0859L86.5403 60.087ZM119.328 52.8254H118.038C118.038 52.6511 117.97 52.4836 117.951 52.3503C117.93 51.3836 117.578 50.4534 116.953 49.7156C116.328 48.9778 115.468 48.4773 114.518 48.298C112.726 47.7839 110.814 47.876 109.079 48.56C108.393 48.7563 107.79 49.1693 107.358 49.7373C106.926 50.3053 106.69 50.9978 106.685 51.7112C106.66 52.4117 106.878 53.0991 107.302 53.6573C107.726 54.2155 108.33 54.6102 109.011 54.7746L114.906 56.2876C115.543 56.4405 116.171 56.6314 116.785 56.8595C118.665 57.543 119.941 59.2884 119.998 61.2832C120.026 62.2597 119.758 63.2218 119.23 64.0432C118.701 64.8647 117.936 65.507 117.036 65.8858C115.668 66.5073 114.185 66.8361 112.682 66.8512C111.18 66.8663 109.691 66.5674 108.31 65.9735C107.175 65.4841 106.217 64.6586 105.565 63.6081C104.914 62.5577 104.599 61.3329 104.665 60.0984H105.925C106.399 62.3826 107.967 64.2852 110.119 65.1852C112.272 66.0852 114.729 65.8642 116.686 64.5973C117.273 64.2919 117.761 63.8247 118.091 63.2509C118.421 62.677 118.579 62.0207 118.548 61.3596C118.577 60.7083 118.393 60.0653 118.024 59.5281C117.654 58.9909 117.12 58.5887 116.502 58.3827C114.989 57.8199 113.38 57.5203 111.839 57.0156C110.226 56.5659 108.648 55.999 107.118 55.3192C104.693 54.1264 104.5 49.4441 107.263 47.9505C108.721 47.104 110.373 46.6493 112.058 46.6305C113.743 46.6117 115.405 47.0296 116.881 47.8434C117.725 48.3472 118.405 49.0857 118.837 49.9688C119.269 50.8519 119.435 51.8416 119.314 52.8174L119.328 52.8254ZM34.875 66.3028C34.3673 66.4948 33.807 66.4942 33.2997 66.3014C32.7924 66.1085 32.3732 65.7366 32.1214 65.2558L27.1086 58.3234L26.3818 57.3551L20.5647 65.2661C20.3276 65.7261 19.9312 66.0842 19.4494 66.2733C18.9676 66.4624 18.4335 66.4696 17.9467 66.2937L25.4408 56.2397L18.4685 47.1553C19.5029 46.7816 20.6559 47.1872 21.2312 48.1237L26.4262 55.1415L31.652 48.151C31.8908 47.6988 32.2876 47.3502 32.7667 47.1714C33.2458 46.9927 33.774 46.9963 34.2506 47.1815L31.5449 50.7713L27.8799 55.5414C27.7782 55.6322 27.6968 55.7435 27.6411 55.868C27.5854 55.9924 27.5565 56.1273 27.5565 56.2637C27.5565 56.4 27.5854 56.5349 27.6411 56.6593C27.6968 56.7838 27.7782 56.8951 27.8799 56.9859L34.8601 66.3028H34.875ZM66.6944 47.0585V48.4256C65.7138 48.3612 64.7306 48.5033 63.8083 48.8424C62.886 49.1816 62.0451 49.7104 61.3398 50.3946C60.6345 51.0789 60.0805 51.9034 59.7135 52.8151C59.3466 53.7267 59.1749 54.7051 59.2095 55.6872C59.2095 58.8802 59.2095 62.0731 59.2095 65.2661V66.3518H57.823V47.1439H59.1901V51.08C60.8671 48.2091 63.4555 47.1439 66.7035 47.0664L66.6944 47.0585ZM0.00227889 56.1144L0.612921 53.0988C2.28991 47.1359 9.12545 44.6546 13.8283 48.3481C16.5819 50.5104 17.2689 53.5739 17.1344 57.0258H1.62116C1.37053 63.1915 5.81933 66.9146 11.5099 65.0143C13.3851 64.3307 14.7967 62.7722 15.2615 60.8355C15.5623 59.8671 16.059 59.7008 16.9681 59.9811C16.8165 61.1615 16.3992 62.2921 15.7476 63.2881C15.096 64.284 14.2271 65.1192 13.2063 65.7309C11.5197 66.6533 9.58459 67.0187 7.67775 66.775C5.77091 66.5313 3.98995 65.6909 2.58953 64.374C1.2042 62.8167 0.367981 60.848 0.205067 58.7689C0.205067 58.4271 0.0911409 58.1081 0.0113928 57.8005C0.00379779 57.2256 0 56.6635 0 56.1144H0.00227889ZM1.64053 55.6974H15.6693C15.5816 51.2281 12.7608 48.0576 8.99899 48.028C4.81108 47.971 1.81484 51.0721 1.63028 55.6781L1.64053 55.6974Z" fill="#1F2626"/>
</svg>
