<svg width="120" height="164" viewBox="0 0 120 164" fill="none" xmlns="http://www.w3.org/2000/svg">
<path d="M84.7407 47.7544C78.7204 19.869 66.1563 12.4436 62.9681 7.19463C61.2353 4.33931 59.4685 0 59.4685 0C59.2957 2.47333 58.9895 4.03976 56.9792 5.91949C52.9535 9.68719 35.8453 24.3238 34.4083 56.0098C33.0681 85.5523 55.0868 103.772 58.0132 105.655C60.2485 106.809 62.9865 105.677 64.2952 104.619C74.9067 96.9681 89.4235 76.5686 84.7276 47.7544" fill="#10AA50"/>
<path d="M60.3802 89.9189C59.8279 97.2345 59.43 101.491 58.0244 105.663C58.0244 105.663 58.951 112.624 59.5949 120H61.8905C62.4385 114.805 63.2749 109.648 64.3955 104.556C61.422 103.025 60.4927 96.3358 60.3802 89.9189Z" fill="#B8C4C2"/>
<path d="M64.3941 104.561C61.3891 103.104 60.5201 96.2809 60.3866 89.9189C61.127 79.43 61.341 68.9075 61.0279 58.395C60.8709 52.8795 61.1064 7.30163 59.7349 0.62915C60.2898 1.93452 61.6299 5.00144 62.9701 7.19171C66.1714 12.4434 78.725 19.8689 84.7401 47.757C89.428 76.497 74.9976 96.8607 64.3941 104.561Z" fill="#12924F"/>
<path d="M17.8825 146.8V158H16.7465V149.04L12.3465 156.576H11.7865L7.38655 149.088V158H6.25055V146.8H7.22655L12.0905 155.104L16.9065 146.8H17.8825ZM28.5939 158.096C27.4845 158.096 26.4765 157.851 25.5699 157.36C24.6739 156.859 23.9699 156.176 23.4579 155.312C22.9565 154.448 22.7059 153.477 22.7059 152.4C22.7059 151.323 22.9565 150.352 23.4579 149.488C23.9699 148.624 24.6739 147.947 25.5699 147.456C26.4765 146.955 27.4845 146.704 28.5939 146.704C29.7032 146.704 30.7005 146.949 31.5859 147.44C32.4819 147.931 33.1859 148.613 33.6979 149.488C34.2099 150.352 34.4659 151.323 34.4659 152.4C34.4659 153.477 34.2099 154.453 33.6979 155.328C33.1859 156.192 32.4819 156.869 31.5859 157.36C30.7005 157.851 29.7032 158.096 28.5939 158.096ZM28.5939 157.04C29.4792 157.04 30.2792 156.843 30.9939 156.448C31.7085 156.043 32.2685 155.488 32.6739 154.784C33.0792 154.069 33.2819 153.275 33.2819 152.4C33.2819 151.525 33.0792 150.736 32.6739 150.032C32.2685 149.317 31.7085 148.763 30.9939 148.368C30.2792 147.963 29.4792 147.76 28.5939 147.76C27.7085 147.76 26.9032 147.963 26.1779 148.368C25.4632 148.763 24.8979 149.317 24.4819 150.032C24.0765 150.736 23.8739 151.525 23.8739 152.4C23.8739 153.275 24.0765 154.069 24.4819 154.784C24.8979 155.488 25.4632 156.043 26.1779 156.448C26.9032 156.843 27.7085 157.04 28.5939 157.04ZM48.6458 146.8V158H47.6698L40.4698 148.912V158H39.2858V146.8H40.2618L47.4778 155.888V146.8H48.6458ZM62.3555 152.4H63.4915V156.672C62.9689 157.131 62.3502 157.483 61.6355 157.728C60.9209 157.973 60.1689 158.096 59.3795 158.096C58.2595 158.096 57.2515 157.851 56.3555 157.36C55.4595 156.869 54.7555 156.192 54.2435 155.328C53.7315 154.453 53.4755 153.477 53.4755 152.4C53.4755 151.323 53.7315 150.352 54.2435 149.488C54.7555 148.613 55.4595 147.931 56.3555 147.44C57.2515 146.949 58.2649 146.704 59.3955 146.704C60.2489 146.704 61.0329 146.843 61.7475 147.12C62.4622 147.387 63.0649 147.787 63.5555 148.32L62.8195 149.072C61.9342 148.197 60.8089 147.76 59.4435 147.76C58.5369 147.76 57.7155 147.963 56.9795 148.368C56.2542 148.763 55.6835 149.317 55.2675 150.032C54.8515 150.736 54.6435 151.525 54.6435 152.4C54.6435 153.275 54.8515 154.064 55.2675 154.768C55.6835 155.472 56.2542 156.027 56.9795 156.432C57.7049 156.837 58.5209 157.04 59.4275 157.04C60.5795 157.04 61.5555 156.752 62.3555 156.176V152.4ZM73.9046 158.096C72.7953 158.096 71.7873 157.851 70.8806 157.36C69.9846 156.859 69.2806 156.176 68.7686 155.312C68.2673 154.448 68.0166 153.477 68.0166 152.4C68.0166 151.323 68.2673 150.352 68.7686 149.488C69.2806 148.624 69.9846 147.947 70.8806 147.456C71.7873 146.955 72.7953 146.704 73.9046 146.704C75.0139 146.704 76.0113 146.949 76.8966 147.44C77.7926 147.931 78.4966 148.613 79.0086 149.488C79.5206 150.352 79.7766 151.323 79.7766 152.4C79.7766 153.477 79.5206 154.453 79.0086 155.328C78.4966 156.192 77.7926 156.869 76.8966 157.36C76.0113 157.851 75.0139 158.096 73.9046 158.096ZM73.9046 157.04C74.7899 157.04 75.5899 156.843 76.3046 156.448C77.0193 156.043 77.5793 155.488 77.9846 154.784C78.3899 154.069 78.5926 153.275 78.5926 152.4C78.5926 151.525 78.3899 150.736 77.9846 150.032C77.5793 149.317 77.0193 148.763 76.3046 148.368C75.5899 147.963 74.7899 147.76 73.9046 147.76C73.0193 147.76 72.2139 147.963 71.4886 148.368C70.7739 148.763 70.2086 149.317 69.7926 150.032C69.3873 150.736 69.1846 151.525 69.1846 152.4C69.1846 153.275 69.3873 154.069 69.7926 154.784C70.2086 155.488 70.7739 156.043 71.4886 156.448C72.2139 156.843 73.0193 157.04 73.9046 157.04ZM90.9501 146.8H95.5101C96.6941 146.8 97.7395 147.04 98.6461 147.52C99.5528 147.989 100.257 148.651 100.758 149.504C101.259 150.347 101.51 151.312 101.51 152.4C101.51 153.488 101.259 154.459 100.758 155.312C100.257 156.155 99.5528 156.816 98.6461 157.296C97.7395 157.765 96.6941 158 95.5101 158H90.9501V146.8ZM95.4461 156.976C96.4275 156.976 97.2861 156.784 98.0221 156.4C98.7581 156.005 99.3288 155.467 99.7341 154.784C100.139 154.091 100.342 153.296 100.342 152.4C100.342 151.504 100.139 150.715 99.7341 150.032C99.3288 149.339 98.7581 148.8 98.0221 148.416C97.2861 148.021 96.4275 147.824 95.4461 147.824H92.1341V156.976H95.4461ZM113.391 152.224C114.127 152.384 114.692 152.704 115.087 153.184C115.492 153.653 115.695 154.261 115.695 155.008C115.695 155.968 115.338 156.709 114.623 157.232C113.919 157.744 112.874 158 111.487 158H106.335V146.8H111.167C112.415 146.8 113.38 147.051 114.063 147.552C114.756 148.053 115.103 148.763 115.103 149.68C115.103 150.299 114.948 150.827 114.639 151.264C114.34 151.691 113.924 152.011 113.391 152.224ZM107.519 147.776V151.84H111.087C111.994 151.84 112.692 151.669 113.183 151.328C113.674 150.976 113.919 150.469 113.919 149.808C113.919 149.147 113.674 148.645 113.183 148.304C112.692 147.952 111.994 147.776 111.087 147.776H107.519ZM111.471 157.024C112.474 157.024 113.231 156.853 113.743 156.512C114.255 156.171 114.511 155.637 114.511 154.912C114.511 153.515 113.498 152.816 111.471 152.816H107.519V157.024H111.471Z" fill="#1F2626"/>
</svg>
