<svg width="120" height="164" viewBox="0 0 120 164" fill="none" xmlns="http://www.w3.org/2000/svg">
<path d="M32.3655 146.8V158H31.3895L24.1895 148.912V158H23.0055V146.8H23.9815L31.1975 155.888V146.8H32.3655ZM46.1072 156.976V158H38.1872V146.8H45.8672V147.824H39.3712V151.808H45.1632V152.816H39.3712V156.976H46.1072ZM54.1444 158.096C53.3124 158.096 52.5124 157.963 51.7444 157.696C50.987 157.429 50.4004 157.077 49.9844 156.64L50.4484 155.728C50.8537 156.133 51.3924 156.464 52.0644 156.72C52.7364 156.965 53.4297 157.088 54.1444 157.088C55.147 157.088 55.899 156.907 56.4004 156.544C56.9017 156.171 57.1524 155.691 57.1524 155.104C57.1524 154.656 57.0137 154.299 56.7364 154.032C56.4697 153.765 56.139 153.563 55.7444 153.424C55.3497 153.275 54.8004 153.115 54.0964 152.944C53.2537 152.731 52.5817 152.528 52.0804 152.336C51.579 152.133 51.147 151.829 50.7844 151.424C50.4324 151.019 50.2564 150.469 50.2564 149.776C50.2564 149.211 50.4057 148.699 50.7044 148.24C51.003 147.771 51.4617 147.397 52.0804 147.12C52.699 146.843 53.467 146.704 54.3844 146.704C55.0244 146.704 55.6484 146.795 56.2564 146.976C56.875 147.147 57.4084 147.387 57.8564 147.696L57.4564 148.64C56.987 148.331 56.4857 148.101 55.9524 147.952C55.419 147.792 54.8964 147.712 54.3844 147.712C53.403 147.712 52.6617 147.904 52.1604 148.288C51.6697 148.661 51.4244 149.147 51.4244 149.744C51.4244 150.192 51.5577 150.555 51.8244 150.832C52.1017 151.099 52.443 151.307 52.8484 151.456C53.2644 151.595 53.819 151.749 54.5124 151.92C55.3337 152.123 55.995 152.325 56.4964 152.528C57.0084 152.72 57.4404 153.019 57.7924 153.424C58.1444 153.819 58.3204 154.357 58.3204 155.04C58.3204 155.605 58.1657 156.123 57.8564 156.592C57.5577 157.051 57.0937 157.419 56.4644 157.696C55.835 157.963 55.0617 158.096 54.1444 158.096ZM65.0859 147.824H61.1499V146.8H70.2059V147.824H66.2699V158H65.0859V147.824ZM81.8171 158.096C81.1771 158.096 80.5851 157.957 80.0411 157.68C79.4971 157.403 79.0544 157.008 78.7131 156.496L79.4171 155.696C80.0358 156.613 80.8411 157.072 81.8331 157.072C83.2198 157.072 83.9131 156.251 83.9131 154.608V147.824H79.8171V146.8H85.0811V154.56C85.0811 155.733 84.8038 156.619 84.2491 157.216C83.7051 157.803 82.8944 158.096 81.8171 158.096ZM93.8868 158.096C93.0548 158.096 92.2548 157.963 91.4868 157.696C90.7295 157.429 90.1428 157.077 89.7268 156.64L90.1908 155.728C90.5961 156.133 91.1348 156.464 91.8068 156.72C92.4788 156.965 93.1721 157.088 93.8868 157.088C94.8895 157.088 95.6415 156.907 96.1428 156.544C96.6441 156.171 96.8948 155.691 96.8948 155.104C96.8948 154.656 96.7561 154.299 96.4788 154.032C96.2121 153.765 95.8815 153.563 95.4868 153.424C95.0921 153.275 94.5428 153.115 93.8388 152.944C92.9961 152.731 92.3241 152.528 91.8228 152.336C91.3215 152.133 90.8895 151.829 90.5268 151.424C90.1748 151.019 89.9988 150.469 89.9988 149.776C89.9988 149.211 90.1481 148.699 90.4468 148.24C90.7455 147.771 91.2041 147.397 91.8228 147.12C92.4415 146.843 93.2095 146.704 94.1268 146.704C94.7668 146.704 95.3908 146.795 95.9988 146.976C96.6175 147.147 97.1508 147.387 97.5988 147.696L97.1988 148.64C96.7295 148.331 96.2281 148.101 95.6948 147.952C95.1615 147.792 94.6388 147.712 94.1268 147.712C93.1455 147.712 92.4041 147.904 91.9028 148.288C91.4121 148.661 91.1668 149.147 91.1668 149.744C91.1668 150.192 91.3001 150.555 91.5668 150.832C91.8441 151.099 92.1855 151.307 92.5908 151.456C93.0068 151.595 93.5615 151.749 94.2548 151.92C95.0761 152.123 95.7375 152.325 96.2388 152.528C96.7508 152.72 97.1828 153.019 97.5348 153.424C97.8868 153.819 98.0628 154.357 98.0628 155.04C98.0628 155.605 97.9081 156.123 97.5988 156.592C97.3001 157.051 96.8361 157.419 96.2068 157.696C95.5775 157.963 94.8041 158.096 93.8868 158.096Z" fill="#1F2626"/>
<path fill-rule="evenodd" clip-rule="evenodd" d="M70.6687 0C69.8449 0.00936615 69.0283 0.154155 68.2515 0.428571C75.1558 4.96286 67.0515 11.5457 70.823 17.1429C70.5591 15.2693 70.8564 13.3595 71.6771 11.6547C72.4978 9.94995 73.8053 8.52656 75.4344 7.56429C76.6558 6.54857 77.4358 6.18429 77.1744 4.50429C76.763 1.75286 73.0944 0 70.6687 0ZM80.5258 1.77429C79.5744 6.58714 78.383 6.76286 74.8558 9.86143C73.4787 10.9449 72.5066 12.4606 72.0961 14.164C71.6856 15.8675 71.8606 17.6596 72.593 19.2514C58.0215 13.5943 39.3444 10.1743 25.6515 19.9629C20.7272 23.4814 17.7187 28.5343 11.6458 30.5957C7.7201 31.9371 3.86296 31.5429 1.41153 35.4343C0.511845 36.558 0.0418561 37.9654 0.0858371 39.4042C0.129818 40.843 0.684892 42.2191 1.65153 43.2857C2.3801 44.0357 3.79439 44.5157 4.37725 45.2786C4.71582 45.7071 4.70725 46.1357 5.02868 46.7057C5.59537 48.0348 6.41649 49.2403 7.44582 50.2543C8.07153 50.7729 10.2401 51.2786 10.6087 51.8314C11.0672 52.5214 9.86725 55.26 10.8744 55.6886C11.5558 56.0014 13.5401 52.5 13.733 52.1914C13.3387 54.9471 12.8201 59.8371 15.9187 55.7657C17.3887 53.8329 17.4787 53.1943 19.9515 52.7657C24.832 51.9298 29.8328 52.1146 34.6382 53.3084C39.4437 54.5023 43.9495 56.6792 47.8714 59.7019C51.7933 62.7245 55.0461 66.5273 57.4245 70.8702C59.8029 75.2131 61.2553 80.0019 61.6901 84.9343C61.2272 82.7914 58.4287 79.3629 55.823 80.1771C54.713 80.52 54.3015 82.4357 53.573 83.5457C52.6531 84.9541 51.5179 86.2094 50.2087 87.2657C50.4322 85.1881 50.3281 83.0882 49.9001 81.0429C49.1201 84.2486 47.5558 89.5671 43.6172 88.7057C42.3052 88.5054 41.0759 87.9403 40.0695 87.0749C39.0632 86.2095 38.3204 85.0787 37.9258 83.8114C37.4158 80.5543 40.8572 76.7357 35.3244 76.4657C24.2244 75.9214 26.7915 92.2457 33.3444 96.5014C31.8384 96.668 30.3693 97.0776 28.9944 97.7143C33.1537 100.131 37.8403 101.496 42.6469 101.69C47.4535 101.883 52.2348 100.901 56.5751 98.8262C60.9155 96.7519 64.6836 93.6491 67.552 89.7873C70.4205 85.9255 72.3024 81.4217 73.0344 76.6671C74.5608 83.6224 73.5802 90.8933 70.2658 97.1957C68.8786 99.8304 67.1014 102.24 64.9944 104.344C63.7087 105.63 61.163 107.044 60.3272 108.377C65.5285 107.689 70.6113 106.294 75.4344 104.229C70.4422 111.031 63.8069 116.457 56.1487 120C64.3719 119.418 72.321 116.798 79.2791 112.377C86.2372 107.956 91.9856 101.873 96.0058 94.6757C94.7246 101.874 91.8791 108.703 87.6701 114.681C93.3312 110.891 98.1476 105.972 101.817 100.232C105.486 94.4917 107.929 88.0549 108.992 81.3257C110.045 86.2519 110.347 91.3092 109.887 96.3257C114.539 89.8646 117.682 82.4422 119.085 74.6051C120.487 66.7682 120.114 58.7163 117.992 51.0429C116.367 45.0782 113.932 39.3648 110.753 34.0629C109.523 31.9968 108.176 30.0021 106.72 28.0886C106.15 27.3471 103.103 24.6343 103.103 23.8029C103.077 23.8857 103.056 23.8857 103.039 23.8029C103.039 37.8 88.0387 46.5643 75.4772 42.93C80.3399 42.5484 84.9268 40.5192 88.4801 37.1778C92.0334 33.8365 94.3405 29.3829 95.0201 24.5529C95.5934 19.6687 94.4652 14.7362 91.8258 10.5868C89.1863 6.43752 85.1969 3.32511 80.5301 1.77429H80.5258Z" fill="url(#paint0_linear_1_2446)"/>
<defs>
<linearGradient id="paint0_linear_1_2446" x1="59.993" y1="120" x2="59.993" y2="0" gradientUnits="userSpaceOnUse">
<stop stop-color="#FFB199"/>
<stop offset="1" stop-color="#FF0844"/>
</linearGradient>
</defs>
</svg>
