<svg width="153" height="150" viewBox="0 0 153 150" fill="none" xmlns="http://www.w3.org/2000/svg">
<g clip-path="url(#clip0_1_2462)">
<path d="M75.9999 63.6073C81.9173 63.6073 86.7142 58.8103 86.7142 52.893C86.7142 46.9757 81.9173 42.1787 75.9999 42.1787C70.0826 42.1787 65.2856 46.9757 65.2856 52.893C65.2856 58.8103 70.0826 63.6073 75.9999 63.6073Z" fill="#F5DE19"/>
<path d="M76 77.4583C63.122 77.7698 50.2763 76.0339 37.9429 72.3155C32.2455 70.5094 26.9317 67.6643 22.27 63.924C20.4911 62.6463 19.0097 60.9988 17.9275 59.0946C16.8452 57.1905 16.1877 55.0748 16 52.8926C16 45.8083 23.7829 38.8655 36.82 34.3226C49.4831 30.2972 62.714 28.3463 76 28.5455C89.1087 28.3623 102.162 30.2779 114.666 34.2197C120.153 35.969 125.286 38.6765 129.829 42.2169C131.577 43.4351 133.036 45.0228 134.103 46.8677C135.169 48.7126 135.817 50.7695 136 52.8926C136 60.2555 127.3 67.7169 113.286 72.354C101.191 75.9513 88.6164 77.6728 76 77.4583ZM76 33.6712C63.2891 33.5013 50.6321 35.3559 38.5043 39.1655C26.5043 43.3526 21.1257 49.0783 21.1257 52.8797C21.1257 56.8569 26.9071 63.1097 39.6014 67.4512C51.4003 70.9905 63.6855 72.6381 76 72.3326C88.0703 72.5484 100.103 70.9152 111.679 67.4897C124.857 63.1226 130.857 56.8612 130.857 52.8926C130.641 51.5307 130.145 50.2285 129.4 49.0681C128.655 47.9078 127.677 46.9145 126.529 46.1512C122.465 43.0104 117.879 40.6108 112.981 39.0626C101.02 35.3073 88.5356 33.4872 76 33.6712Z" fill="#F5DE19"/>
<path d="M51.6553 106.331C49.656 106.377 47.6803 105.892 45.9295 104.925C39.7924 101.385 37.6667 91.1767 40.2424 77.6124C43.0823 64.6313 48.003 52.1951 54.8138 40.7852C61.2027 29.3385 69.3818 18.9877 79.041 10.1252C83.2974 6.24538 88.2076 3.1504 93.5438 0.983791C95.4739 0.0792446 97.5794 -0.389648 99.711 -0.389648C101.843 -0.389648 103.948 0.0792446 105.878 0.983791C112.26 4.66093 114.372 15.9238 111.394 30.3795C108.466 42.6562 103.673 54.4114 97.1824 65.2352C91.0184 76.5468 83.0969 86.8074 73.7138 95.6338C69.3029 99.6657 64.1838 102.846 58.6153 105.015C56.3859 105.843 54.0328 106.287 51.6553 106.331ZM59.2538 43.3309C52.7571 54.2566 48.041 66.1468 45.2824 78.5552C42.9124 91.0481 45.1881 98.5609 48.4967 100.472C51.9253 102.457 60.2481 100.575 70.3538 91.7467C79.3111 83.2907 86.872 73.4689 92.7553 62.6466C98.9736 52.2989 103.571 41.0601 106.388 29.3209C109.191 15.7138 106.77 7.38236 103.332 5.40236C102.044 4.90876 100.668 4.6878 99.2895 4.75346C97.9115 4.81911 96.5622 5.16995 95.3267 5.78379C90.5767 7.74385 86.2098 10.5265 82.4267 14.0038C73.1981 22.4929 65.3854 32.4021 59.2838 43.3566L59.2538 43.3309Z" fill="#F5DE19"/>
<path d="M100.326 106.387C94.5191 106.387 87.1434 102.872 79.4634 96.2681C69.6349 87.325 61.3175 76.8512 54.8334 65.2524C48.1079 53.9996 43.2262 41.7433 40.3734 28.9481C39.1361 23.3187 38.9068 17.5146 39.6962 11.8052C39.8787 9.68726 40.5236 7.63511 41.5855 5.7935C42.6474 3.95188 44.1003 2.36565 45.8419 1.14666C52.2148 -2.54334 63.0276 1.24951 74.0634 11.0467C83.2373 19.7132 91.0279 29.7354 97.1634 40.7638C103.885 51.7539 108.818 63.7418 111.778 76.2795C113.068 82.1154 113.267 88.1397 112.365 94.0481C112.15 96.227 111.467 98.3337 110.362 100.224C109.256 102.114 107.756 103.742 105.962 104.998C104.24 105.953 102.295 106.432 100.326 106.387ZM59.2691 62.6724C65.4895 73.7571 73.4346 83.7811 82.8062 92.3681C92.4448 100.661 100.09 102.444 103.378 100.511C106.806 98.5181 109.335 90.3838 106.729 77.2224C103.874 65.2521 99.1429 53.8091 92.7105 43.3181C86.8555 32.7629 79.4194 23.1661 70.6605 14.8609C60.2719 5.63808 51.8462 3.57666 48.4134 5.56523C47.3434 6.43472 46.4654 7.51661 45.8347 8.7426C45.204 9.96858 44.8343 11.312 44.7491 12.6881C44.0677 17.7799 44.2896 22.952 45.4048 27.9667C48.1489 40.203 52.8308 51.9221 59.2734 62.6809L59.2691 62.6724Z" fill="#F5DE19"/>
</g>
<path d="M7.70992 144L5.14992 140.4C4.86192 140.432 4.56326 140.448 4.25392 140.448H1.24592V144H0.0619228V132.8H4.25392C5.68326 132.8 6.80326 133.141 7.61392 133.824C8.42459 134.507 8.82992 135.445 8.82992 136.64C8.82992 137.515 8.60592 138.256 8.15792 138.864C7.72059 139.461 7.09126 139.893 6.26992 140.16L9.00592 144H7.70992ZM4.22192 139.44C5.33126 139.44 6.17926 139.195 6.76592 138.704C7.35259 138.213 7.64592 137.525 7.64592 136.64C7.64592 135.733 7.35259 135.04 6.76592 134.56C6.17926 134.069 5.33126 133.824 4.22192 133.824H1.24592V139.44H4.22192ZM21.7105 142.976V144H13.7905V132.8H21.4705V133.824H14.9745V137.808H20.7665V138.816H14.9745V142.976H21.7105ZM33.6837 141.008H27.4437L26.0997 144H24.8677L29.9877 132.8H31.1557L36.2757 144H35.0277L33.6837 141.008ZM33.2517 140.048L30.5637 134.032L27.8757 140.048H33.2517ZM45.0023 144.096C43.8929 144.096 42.8903 143.851 41.9943 143.36C41.1089 142.869 40.4103 142.192 39.8983 141.328C39.3969 140.453 39.1463 139.477 39.1463 138.4C39.1463 137.323 39.3969 136.352 39.8983 135.488C40.4103 134.613 41.1143 133.931 42.0103 133.44C42.9063 132.949 43.9089 132.704 45.0183 132.704C45.8503 132.704 46.6183 132.843 47.3223 133.12C48.0263 133.397 48.6236 133.803 49.1143 134.336L48.3623 135.088C47.4876 134.203 46.3836 133.76 45.0503 133.76C44.1649 133.76 43.3596 133.963 42.6343 134.368C41.9089 134.773 41.3383 135.328 40.9223 136.032C40.5169 136.736 40.3143 137.525 40.3143 138.4C40.3143 139.275 40.5169 140.064 40.9223 140.768C41.3383 141.472 41.9089 142.027 42.6343 142.432C43.3596 142.837 44.1649 143.04 45.0503 143.04C46.3943 143.04 47.4983 142.592 48.3623 141.696L49.1143 142.448C48.6236 142.981 48.0209 143.392 47.3063 143.68C46.6023 143.957 45.8343 144.096 45.0023 144.096ZM55.8397 133.824H51.9037V132.8H60.9597V133.824H57.0237V144H55.8397V133.824ZM80.7309 132.8V144H79.7549L72.5549 134.912V144H71.3709V132.8H72.3469L79.5629 141.888V132.8H80.7309ZM93.5766 141.008H87.3366L85.9926 144H84.7606L89.8806 132.8H91.0486L96.1686 144H94.9206L93.5766 141.008ZM93.1446 140.048L90.4566 134.032L87.7686 140.048H93.1446ZM104.895 144.096C103.786 144.096 102.783 143.851 101.887 143.36C101.002 142.869 100.303 142.192 99.7912 141.328C99.2898 140.453 99.0392 139.477 99.0392 138.4C99.0392 137.323 99.2898 136.352 99.7912 135.488C100.303 134.613 101.007 133.931 101.903 133.44C102.799 132.949 103.802 132.704 104.911 132.704C105.743 132.704 106.511 132.843 107.215 133.12C107.919 133.397 108.516 133.803 109.007 134.336L108.255 135.088C107.38 134.203 106.276 133.76 104.943 133.76C104.058 133.76 103.252 133.963 102.527 134.368C101.802 134.773 101.231 135.328 100.815 136.032C100.41 136.736 100.207 137.525 100.207 138.4C100.207 139.275 100.41 140.064 100.815 140.768C101.231 141.472 101.802 142.027 102.527 142.432C103.252 142.837 104.058 143.04 104.943 143.04C106.287 143.04 107.391 142.592 108.255 141.696L109.007 142.448C108.516 142.981 107.914 143.392 107.199 143.68C106.495 143.957 105.727 144.096 104.895 144.096ZM115.733 133.824H111.797V132.8H120.853V133.824H116.917V144H115.733V133.824ZM124.91 132.8H126.094V144H124.91V132.8ZM141.091 132.8L136.131 144H134.963L130.003 132.8H131.283L135.571 142.528L139.891 132.8H141.091ZM152.803 142.976V144H144.883V132.8H152.563V133.824H146.067V137.808H151.859V138.816H146.067V142.976H152.803Z" fill="#1F2626"/>
<defs>
<clipPath id="clip0_1_2462">
<rect width="120" height="106" fill="white" transform="translate(16)"/>
</clipPath>
</defs>
</svg>
