<svg width="120" height="164" viewBox="0 0 120 164" fill="none" xmlns="http://www.w3.org/2000/svg">
<path d="M34.8898 158L32.3298 154.4C32.0418 154.432 31.7432 154.448 31.4338 154.448H28.4258V158H27.2418V146.8H31.4338C32.8632 146.8 33.9832 147.141 34.7938 147.824C35.6045 148.507 36.0098 149.445 36.0098 150.64C36.0098 151.515 35.7858 152.256 35.3378 152.864C34.9005 153.461 34.2712 153.893 33.4498 154.16L36.1858 158H34.8898ZM31.4018 153.44C32.5112 153.44 33.3592 153.195 33.9458 152.704C34.5325 152.213 34.8258 151.525 34.8258 150.64C34.8258 149.733 34.5325 149.04 33.9458 148.56C33.3592 148.069 32.5112 147.824 31.4018 147.824H28.4258V153.44H31.4018ZM48.8904 156.976V158H40.9704V146.8H48.6504V147.824H42.1544V151.808H47.9464V152.816H42.1544V156.976H48.8904ZM53.8396 146.8H58.3996C59.5836 146.8 60.629 147.04 61.5356 147.52C62.4423 147.989 63.1463 148.651 63.6476 149.504C64.149 150.347 64.3996 151.312 64.3996 152.4C64.3996 153.488 64.149 154.459 63.6476 155.312C63.1463 156.155 62.4423 156.816 61.5356 157.296C60.629 157.765 59.5836 158 58.3996 158H53.8396V146.8ZM58.3356 156.976C59.317 156.976 60.1756 156.784 60.9116 156.4C61.6476 156.005 62.2183 155.467 62.6236 154.784C63.029 154.091 63.2316 153.296 63.2316 152.4C63.2316 151.504 63.029 150.715 62.6236 150.032C62.2183 149.339 61.6476 148.8 60.9116 148.416C60.1756 148.021 59.317 147.824 58.3356 147.824H55.0236V156.976H58.3356ZM73.7364 158.096C72.2858 158.096 71.1551 157.68 70.3444 156.848C69.5338 156.016 69.1284 154.805 69.1284 153.216V146.8H70.3124V153.168C70.3124 154.469 70.6058 155.44 71.1924 156.08C71.7791 156.72 72.6271 157.04 73.7364 157.04C74.8564 157.04 75.7098 156.72 76.2964 156.08C76.8831 155.44 77.1764 154.469 77.1764 153.168V146.8H78.3284V153.216C78.3284 154.805 77.9231 156.016 77.1124 156.848C76.3124 157.68 75.1871 158.096 73.7364 158.096ZM90.9302 158L87.3141 153.072L83.7141 158H82.3541L86.6101 152.24L82.6261 146.8H83.9861L87.3621 151.376L90.7221 146.8H92.0021L88.0341 152.208L92.3062 158H90.9302Z" fill="#1F2626"/>
<g clip-path="url(#clip0_1_2438)">
<path d="M83.1473 82.6013C87.5756 82.1428 90.9352 78.3253 90.7823 73.7438C90.63 69.1627 86.812 65.4975 82.2309 65.4975H81.9258C77.1914 65.6503 73.5267 69.6207 73.6795 74.3546C73.8323 76.6453 74.7483 78.6305 76.1227 80.0049C70.9308 90.2368 62.9902 97.7194 51.0792 103.98C42.9858 108.256 34.5872 109.784 26.1886 108.715C19.3167 107.798 13.972 104.745 10.612 99.7046C5.72578 92.2219 5.26781 84.128 9.39093 76.0346C12.2925 70.2314 16.8731 65.9555 19.7747 63.8175C19.1639 61.8324 18.2475 58.4728 17.7895 56.0297C-4.35282 72.0643 -2.06204 93.7491 4.65703 103.98C9.69609 111.616 19.9275 116.35 31.2276 116.35C34.2816 116.35 37.3355 116.045 40.3898 115.282C59.9362 111.464 74.7487 99.8574 83.1473 82.6013ZM110.024 63.6652C98.4178 50.0738 81.315 42.5911 61.7686 42.5911H59.3255C57.9511 39.8424 55.0495 38.0096 51.8428 38.0096H51.5372C46.8037 38.1624 43.1391 42.1327 43.2914 46.8671C43.4442 51.4482 47.2617 55.1133 51.8428 55.1133H52.148C55.5075 54.9605 58.4091 52.8225 59.6306 49.921H62.3794C73.9852 49.921 84.9797 53.2805 94.9059 59.8472C102.541 64.8868 108.038 71.4535 111.092 79.3941C113.688 85.808 113.535 92.0691 110.787 97.4143C106.511 105.508 99.3342 109.936 89.8664 109.936C83.7581 109.936 77.9555 108.104 74.9011 106.729C73.2216 108.256 70.1672 110.7 68.0292 112.227C74.5959 115.281 81.315 116.961 87.7284 116.961C102.388 116.961 113.23 108.867 117.353 100.774C121.782 91.9163 121.476 76.6453 110.024 63.6652ZM32.4492 85.1968C32.602 89.7783 36.4195 93.443 41.0006 93.443H41.3062C46.0401 93.2907 49.7048 89.3199 49.552 84.586C49.3997 80.0044 45.5817 76.3397 41.0006 76.3397H40.6955C40.3898 76.3397 39.9314 76.3397 39.6267 76.4921C33.3656 66.1078 30.7697 54.8077 31.6861 42.5907C32.2964 33.428 35.3508 25.4869 40.6955 18.9202C45.1237 13.2699 53.6751 10.5211 59.4783 10.3688C75.6647 10.0632 82.5361 30.2208 82.9945 38.3147C84.9797 38.7727 88.3392 39.8419 90.63 40.6055C88.7972 15.8668 73.5267 3.03894 58.8675 3.03894C45.1237 3.03894 32.4492 12.9652 27.4097 27.6253C20.3855 47.1722 24.9666 65.9555 33.518 80.7685C32.7548 81.8372 32.2964 83.5172 32.4492 85.1972V85.1968Z" fill="#764ABC"/>
</g>
<defs>
<clipPath id="clip0_1_2438">
<rect width="120" height="120" fill="white"/>
</clipPath>
</defs>
</svg>
